# xmcd CD database file
#
# Track frame offsets:
#	150
#	25687
#	49775
#	73555
#	97397
#	122072
#	143427
#	161092
#	176550
#	211830
#	232275
#
# Disc length: 3432 seconds
#
# Revision: 7
# Processed by: cddbd v1.4PL0 Copyright (c) Steve Scherf et al.
# Submitted via: CDex 1.40Beta8
#
DISCID=9b0d660b
DTITLE=Buddy Guy - Heavy Love
DYEAR=1998
DGENRE=Blues
TTITLE0=Heavy Love
TTITLE1=Midnight Train
TTITLE2=I Got a Problem
TTITLE3=I Need You Tonight
TTITLE4=Saturday Night Fish Fry
TTITLE5=Had a Bad Night
TTITLE6=Are You Lonely for Me Baby
TTITLE7=I Just Want to Make Love to You
TTITLE8=Did Somebody Make a Fool Out of You?
TTITLE9=When The Time is Right
TTITLE10=Let it Show
EXTD=YEAR: 1998 ID3G: 0
EXTT0=
EXTT1=featuring Jonny Lang\n
EXTT2=
EXTT3=
EXTT4=
EXTT5=
EXTT6=
EXTT7=
EXTT8=
EXTT9=
EXTT10=
PLAYORDER=
